<svg width="83" height="26" viewBox="0 0 83 26" fill="none" xmlns="http://www.w3.org/2000/svg">
<rect x="1" y="1" width="73.6222" height="24" stroke="#DBFF00" stroke-width="2"/>
<path d="M14 12C14.93 12.29 15.625 12.535 16.085 12.735C16.545 12.935 16.92 13.225 17.21 13.605C17.5 13.975 17.645 14.485 17.645 15.135C17.645 15.845 17.44 16.425 17.03 16.875C16.63 17.325 16.12 17.65 15.5 17.85C14.89 18.04 14.26 18.135 13.61 18.135C12.65 18.135 11.755 18.02 10.925 17.79C10.095 17.55 9.385 17.24 8.795 16.86V14.205C9.565 14.885 10.355 15.4 11.165 15.75C11.985 16.09 12.8 16.26 13.61 16.26C14.22 16.26 14.67 16.155 14.96 15.945C15.25 15.725 15.395 15.455 15.395 15.135C15.395 14.855 15.245 14.62 14.945 14.43C14.655 14.23 14.175 14.025 13.505 13.815L11.63 13.23C10.65 12.93 9.88 12.575 9.32 12.165C8.77 11.745 8.495 11.15 8.495 10.38C8.495 9.68 8.71 9.11 9.14 8.67C9.57 8.23 10.12 7.915 10.79 7.725C11.46 7.525 12.17 7.425 12.92 7.425C14.55 7.425 15.975 7.74 17.195 8.37V10.815C16.625 10.355 15.965 9.99 15.215 9.72C14.465 9.44 13.7 9.3 12.92 9.3C12.15 9.3 11.595 9.405 11.255 9.615C10.915 9.825 10.745 10.07 10.745 10.35C10.745 10.59 10.865 10.795 11.105 10.965C11.355 11.135 11.755 11.305 12.305 11.475L14 12ZM18.4399 12.765C18.4399 11.695 18.6849 10.76 19.1749 9.96C19.6649 9.15 20.3449 8.525 21.2149 8.085C22.0949 7.645 23.0899 7.425 24.1999 7.425C25.0099 7.425 25.7649 7.535 26.4649 7.755C27.1649 7.975 27.7299 8.26 28.1599 8.61V11.16C26.9899 9.92 25.6699 9.3 24.1999 9.3C23.4499 9.3 22.8099 9.46 22.2799 9.78C21.7599 10.09 21.3649 10.51 21.0949 11.04C20.8249 11.56 20.6899 12.135 20.6899 12.765C20.6899 13.465 20.8449 14.08 21.1549 14.61C21.4749 15.13 21.8999 15.53 22.4299 15.81C22.9699 16.09 23.5599 16.23 24.1999 16.23C24.9899 16.23 25.6949 16.075 26.3149 15.765C26.9449 15.445 27.5799 14.945 28.2199 14.265V16.86C27.7399 17.25 27.1549 17.555 26.4649 17.775C25.7849 17.995 25.0149 18.105 24.1549 18.105C23.0649 18.105 22.0849 17.88 21.2149 17.43C20.3549 16.98 19.6749 16.35 19.1749 15.54C18.6849 14.73 18.4399 13.805 18.4399 12.765ZM33.9468 13.35C34.6268 13.5 35.2268 13.7 35.7468 13.95C36.2668 14.19 36.6968 14.51 37.0368 14.91L39.6168 18H36.9168L34.6818 15.27C34.3118 14.81 33.9168 14.465 33.4968 14.235C33.0868 14.005 32.5618 13.845 31.9218 13.755V18H29.7468V7.5H34.8318C35.6018 7.5 36.2868 7.63 36.8868 7.89C37.4968 8.14 37.9718 8.5 38.3118 8.97C38.6518 9.44 38.8218 9.985 38.8218 10.605C38.8218 11.255 38.6268 11.8 38.2368 12.24C37.8568 12.67 37.3618 12.985 36.7518 13.185C36.1418 13.375 35.5018 13.455 34.8318 13.425L33.9468 13.305V13.35ZM34.8318 11.85C35.3718 11.85 35.7968 11.74 36.1068 11.52C36.4168 11.3 36.5718 10.995 36.5718 10.605C36.5718 10.235 36.4168 9.925 36.1068 9.675C35.8068 9.425 35.3818 9.3 34.8318 9.3H31.9218V11.85H34.8318ZM45.1583 18.105C44.0083 18.105 43.0033 17.85 42.1433 17.34C41.2933 16.82 40.6433 16.15 40.1933 15.33C39.7533 14.5 39.5333 13.625 39.5333 12.705C39.5333 11.775 39.7633 10.905 40.2233 10.095C40.6933 9.285 41.3533 8.64 42.2033 8.16C43.0633 7.67 44.0483 7.425 45.1583 7.425C46.2683 7.425 47.2483 7.67 48.0983 8.16C48.9583 8.64 49.6183 9.285 50.0783 10.095C50.5483 10.905 50.7833 11.775 50.7833 12.705C50.7833 13.625 50.5583 14.5 50.1083 15.33C49.6683 16.15 49.0183 16.82 48.1583 17.34C47.3083 17.85 46.3083 18.105 45.1583 18.105ZM45.1583 9.3C44.4883 9.3 43.8983 9.46 43.3883 9.78C42.8783 10.09 42.4833 10.505 42.2033 11.025C41.9233 11.545 41.7833 12.105 41.7833 12.705C41.7833 13.295 41.9233 13.865 42.2033 14.415C42.4833 14.955 42.8783 15.395 43.3883 15.735C43.9083 16.065 44.4983 16.23 45.1583 16.23C45.8183 16.23 46.4033 16.065 46.9133 15.735C47.4333 15.395 47.8333 14.955 48.1133 14.415C48.3933 13.865 48.5333 13.295 48.5333 12.705C48.5333 12.105 48.3933 11.545 48.1133 11.025C47.8333 10.505 47.4383 10.09 46.9283 9.78C46.4183 9.46 45.8283 9.3 45.1583 9.3ZM52.1882 7.5H54.3632V16.2H59.9882V18H52.1882V7.5ZM61.1531 7.5H63.3281V16.2H68.9531V18H61.1531V7.5Z" fill="#DBFF00"/>
</svg>
